<?xml version="1.0" standalone="no"?>
<!DOCTYPE svg PUBLIC "-//W3C//DTD SVG 1.1//EN" "http://www.w3.org/Graphics/SVG/1.1/DTD/svg11.dtd">
<svg width="800" height="600" version="1.1" xmlns="http://www.w3.org/2000/svg">
<rect width="800" height="600" x="0" y="0" style="fill:rgb(238,238,238);stroke:none"/>
<rect width="800" height="600" x="0" y="0" style="fill:rgb(255,255,255);stroke:none"/>
<text x="2" y="566" fill="rgb(0,0,0)" font-family="Arial" font-size="12">0</text>
<text x="2" y="473" fill="rgb(0,0,0)" font-family="Arial" font-size="12">1000</text>
<text x="2" y="379" fill="rgb(0,0,0)" font-family="Arial" font-size="12">2000</text>
<text x="2" y="286" fill="rgb(0,0,0)" font-family="Arial" font-size="12">3000</text>
<text x="2" y="192" fill="rgb(0,0,0)" font-family="Arial" font-size="12">4000</text>
<text x="2" y="99" fill="rgb(0,0,0)" font-family="Arial" font-size="12">5000</text>
<text x="265" y="30" fill="rgb(0,0,0)" font-family="Arial" font-size="12">Distribution of sequence lengths over all sequences</text>
<line x1="37" y1="560" x2="790" y2="560" stroke="rgb(0,0,0)" stroke-width="1"/>
<line x1="37" y1="560" x2="37" y2="40" stroke="rgb(0,0,0)" stroke-width="1"/>
<text x="338" y="595" fill="rgb(0,0,0)" font-family="Arial" font-size="12">Sequence Length (bp)</text>
<text x="78" y="575" fill="rgb(0,0,0)" font-family="Arial" font-size="12">246</text>
<rect width="107" height="520" x="144" y="40" style="fill:rgb(230,230,230);stroke:none"/>
<text x="185" y="575" fill="rgb(0,0,0)" font-family="Arial" font-size="12">247</text>
<text x="292" y="575" fill="rgb(0,0,0)" font-family="Arial" font-size="12">248</text>
<rect width="107" height="520" x="358" y="40" style="fill:rgb(230,230,230);stroke:none"/>
<text x="399" y="575" fill="rgb(0,0,0)" font-family="Arial" font-size="12">249</text>
<text x="506" y="575" fill="rgb(0,0,0)" font-family="Arial" font-size="12">250</text>
<rect width="107" height="520" x="572" y="40" style="fill:rgb(230,230,230);stroke:none"/>
<text x="613" y="575" fill="rgb(0,0,0)" font-family="Arial" font-size="12">251</text>
<text x="720" y="575" fill="rgb(0,0,0)" font-family="Arial" font-size="12">252</text>
<line x1="37" y1="560" x2="790" y2="560" stroke="rgb(180,180,180)" stroke-width="1"/>
<line x1="37" y1="467" x2="790" y2="467" stroke="rgb(180,180,180)" stroke-width="1"/>
<line x1="37" y1="373" x2="790" y2="373" stroke="rgb(180,180,180)" stroke-width="1"/>
<line x1="37" y1="280" x2="790" y2="280" stroke="rgb(180,180,180)" stroke-width="1"/>
<line x1="37" y1="186" x2="790" y2="186" stroke="rgb(180,180,180)" stroke-width="1"/>
<line x1="37" y1="93" x2="790" y2="93" stroke="rgb(180,180,180)" stroke-width="1"/>
<line x1="90" y1="560" x2="197" y2="560" stroke="rgb(136,34,85)" stroke-width="1"/>
<line x1="197" y1="560" x2="304" y2="558" stroke="rgb(136,34,85)" stroke-width="1"/>
<line x1="304" y1="558" x2="411" y2="540" stroke="rgb(136,34,85)" stroke-width="1"/>
<line x1="411" y1="540" x2="518" y2="374" stroke="rgb(136,34,85)" stroke-width="1"/>
<line x1="518" y1="374" x2="625" y2="40" stroke="rgb(136,34,85)" stroke-width="1"/>
<line x1="625" y1="40" x2="732" y2="560" stroke="rgb(136,34,85)" stroke-width="1"/>
<rect width="111" height="23" x="679" y="40" style="fill:rgb(255,255,255);stroke:none"/>
<rect width="111" height="23" x="679" y="40" rx="0" ry="0" style="fill:none;stroke-width:1;stroke:rgb(192,192,192)"/>
<text x="682" y="55" fill="rgb(136,34,85)" font-family="Arial" font-size="12" font-weight="bold">Sequence Length</text>
</svg>
